<svg xmlns="http://www.w3.org/2000/svg" xmlns:xlink="http://www.w3.org/1999/xlink" width="500" zoomAndPan="magnify" viewBox="0 0 375 374.999991" height="500" preserveAspectRatio="xMidYMid meet" version="1.0"><defs><clipPath id="2970a2b5e9"><path d="M 131.199219 154 L 211 154 L 211 294.960938 L 131.199219 294.960938 Z M 131.199219 154 " clip-rule="nonzero"/></clipPath><clipPath id="11f5b9ee59"><path d="M 164 79.710938 L 243.699219 79.710938 L 243.699219 221 L 164 221 Z M 164 79.710938 " clip-rule="nonzero"/></clipPath></defs><rect x="-37.5" width="450" fill="#ffffff" y="-37.499999" height="449.999989" fill-opacity="1"/><rect x="-37.5" width="450" fill="#fffdfb" y="-37.499999" height="449.999989" fill-opacity="1"/><g clip-path="url(#2970a2b5e9)"><path fill="#7b2cbf" d="M 154.523438 154.011719 L 199.0625 212.964844 C 200.21875 214.5 201.300781 216.085938 202.304688 217.726562 C 203.304688 219.363281 204.226562 221.046875 205.0625 222.777344 C 205.898438 224.507812 206.648438 226.273438 207.3125 228.078125 C 207.976562 229.882812 208.550781 231.710938 209.035156 233.574219 C 209.519531 235.433594 209.910156 237.3125 210.207031 239.210938 C 210.507812 241.105469 210.714844 243.015625 210.824219 244.933594 C 210.9375 246.851562 210.953125 248.769531 210.878906 250.691406 C 210.800781 252.609375 210.628906 254.523438 210.367188 256.425781 C 210.101562 258.328125 209.742188 260.214844 209.292969 262.082031 C 208.84375 263.953125 208.304688 265.792969 207.671875 267.609375 C 207.042969 269.421875 206.324219 271.203125 205.519531 272.949219 C 204.714844 274.691406 203.824219 276.394531 202.851562 278.050781 C 201.878906 279.707031 200.828125 281.3125 199.699219 282.867188 C 198.570312 284.421875 197.367188 285.917969 196.089844 287.351562 C 194.8125 288.789062 193.46875 290.160156 192.054688 291.460938 C 190.644531 292.765625 189.171875 294 187.640625 295.15625 L 143.101562 236.203125 C 141.945312 234.671875 140.863281 233.085938 139.863281 231.445312 C 138.859375 229.804688 137.9375 228.121094 137.101562 226.390625 C 136.265625 224.664062 135.515625 222.894531 134.851562 221.09375 C 134.1875 219.289062 133.613281 217.457031 133.128906 215.597656 C 132.648438 213.738281 132.253906 211.859375 131.957031 209.960938 C 131.65625 208.0625 131.453125 206.15625 131.339844 204.238281 C 131.226562 202.320312 131.210938 200.398438 131.285156 198.480469 C 131.363281 196.558594 131.535156 194.648438 131.800781 192.746094 C 132.0625 190.839844 132.421875 188.957031 132.871094 187.085938 C 133.320312 185.21875 133.859375 183.378906 134.492188 181.5625 C 135.121094 179.746094 135.839844 177.96875 136.644531 176.222656 C 137.449219 174.476562 138.339844 172.777344 139.3125 171.121094 C 140.285156 169.460938 141.335938 167.855469 142.464844 166.300781 C 143.59375 164.75 144.796875 163.253906 146.074219 161.816406 C 147.351562 160.382812 148.695312 159.011719 150.109375 157.707031 C 151.519531 156.402344 152.992188 155.171875 154.523438 154.011719 Z M 154.523438 154.011719 " fill-opacity="1" fill-rule="nonzero"/></g><g clip-path="url(#11f5b9ee59)"><path fill="#c77dff" d="M 187.382812 79.796875 L 231.917969 138.75 C 233.078125 140.285156 234.160156 141.871094 235.160156 143.511719 C 236.164062 145.152344 237.085938 146.835938 237.921875 148.566406 C 238.757812 150.296875 239.507812 152.066406 240.171875 153.871094 C 240.835938 155.675781 241.410156 157.507812 241.894531 159.367188 C 242.378906 161.226562 242.769531 163.105469 243.066406 165.007812 C 243.367188 166.90625 243.570312 168.8125 243.683594 170.734375 C 243.792969 172.652344 243.8125 174.574219 243.734375 176.492188 C 243.65625 178.414062 243.484375 180.328125 243.21875 182.230469 C 242.953125 184.132812 242.597656 186.019531 242.144531 187.890625 C 241.695312 189.757812 241.15625 191.601562 240.523438 193.417969 C 239.890625 195.230469 239.171875 197.011719 238.367188 198.757812 C 237.558594 200.503906 236.667969 202.203125 235.695312 203.859375 C 234.722656 205.519531 233.667969 207.125 232.539062 208.679688 C 231.40625 210.234375 230.203125 211.726562 228.921875 213.164062 C 227.644531 214.597656 226.300781 215.96875 224.886719 217.273438 C 223.472656 218.574219 222 219.808594 220.464844 220.964844 L 175.929688 162.011719 C 174.769531 160.480469 173.691406 158.890625 172.6875 157.25 C 171.683594 155.613281 170.765625 153.925781 169.925781 152.195312 C 169.089844 150.464844 168.339844 148.699219 167.675781 146.894531 C 167.011719 145.089844 166.4375 143.257812 165.953125 141.398438 C 165.472656 139.535156 165.078125 137.65625 164.78125 135.757812 C 164.480469 133.859375 164.277344 131.949219 164.164062 130.03125 C 164.054688 128.113281 164.035156 126.191406 164.113281 124.269531 C 164.191406 122.351562 164.363281 120.4375 164.628906 118.535156 C 164.894531 116.628906 165.25 114.742188 165.703125 112.875 C 166.152344 111.003906 166.691406 109.164062 167.324219 107.347656 C 167.957031 105.53125 168.675781 103.75 169.480469 102.007812 C 170.289062 100.261719 171.179688 98.558594 172.152344 96.902344 C 173.125 95.246094 174.179688 93.640625 175.308594 92.085938 C 176.441406 90.53125 177.644531 89.035156 178.925781 87.601562 C 180.203125 86.164062 181.546875 84.796875 182.960938 83.492188 C 184.375 82.1875 185.847656 80.957031 187.382812 79.796875 Z M 187.382812 79.796875 " fill-opacity="1" fill-rule="nonzero"/></g></svg>